<svg width="775" height="775" viewBox="0 0 775 775" fill="none" xmlns="http://www.w3.org/2000/svg">
<circle cx="387.5" cy="387.5" r="387.5" fill="#1C2A37"/>
<path d="M357.382 257.393C420.692 270.323 438.872 196.043 475.172 185.883C514.272 174.943 546.802 211.393 557.932 244.633C594.982 355.283 511.882 498.703 388.662 494.203C484.132 461.503 555.812 351.973 520.032 250.073C510.912 224.943 493.482 209.173 469.902 221.613C429.962 242.943 404.632 270.603 357.382 257.393Z" fill="#90D102"/>
<path d="M421.222 255.202C405.342 268.422 392.992 275.142 372.572 279.412C342.782 285.282 321.052 270.702 296.022 257.352C238.562 226.702 243.742 319.362 251.202 350.832C263.152 401.242 289.632 455.072 334.222 484.132C380.012 513.972 431.252 501.842 477.232 479.792C435.342 519.772 376.082 537.392 321.912 511.262C260.022 481.402 222.012 411.172 210.822 345.702C202.792 298.722 209.492 215.432 275.822 219.512C306.892 221.802 323.822 248.302 351.022 258.762C376.392 268.512 397.072 263.942 421.222 255.202Z" fill="#009EE2"/>
<path d="M261.762 181.122C261.432 180.482 258.772 175.932 259.102 175.682C261.202 174.062 263.292 172.422 265.402 170.812C275.472 163.162 286.342 156.423 297.972 151.413C309.282 146.533 321.802 143.092 334.222 144.212C346.622 145.332 357.522 151.673 363.812 162.553C369.982 173.233 371.012 186.463 369.612 198.493C366.792 188.723 363.692 178.503 357.482 170.273C351.852 162.813 343.962 158.622 334.572 158.482C324.582 158.332 314.642 161.792 305.592 165.732C296.332 169.772 287.512 174.772 278.952 180.122C283.142 184.242 289.472 185.002 295.062 185.402C301.772 185.882 308.522 185.652 315.242 186.002C328.002 186.672 341.332 189.543 350.252 199.423C335.652 191.243 319.342 194.453 303.622 196.523C295.732 197.563 287.492 198.303 279.722 196.143C271.752 193.963 265.522 188.432 261.762 181.122Z" fill="#90D102"/>
<path d="M390.392 416.143C391.502 423.903 392.212 431.743 391.622 439.543C390.312 456.963 394.572 473.612 398.302 490.312C403.942 515.532 410.542 540.502 419.482 564.802C419.872 565.872 420.752 566.813 420.522 568.473C414.912 565.723 410.792 561.563 407.142 556.843C398.312 545.433 392.592 532.373 387.452 519.043C382.672 506.653 378.102 494.173 373.472 481.723C371.922 477.553 371.412 473.183 371.452 468.773C371.472 467.053 371.362 465.373 371.002 463.473C370.142 464.393 369.752 465.403 369.932 466.413C370.612 470.353 368.972 473.432 366.682 476.422C356.892 489.242 349.152 503.383 340.672 517.043C337.782 521.693 334.822 526.313 330.972 530.233C325.822 535.483 319.632 538.583 312.142 538.693C311.502 538.703 310.862 538.613 310.232 538.523C310.052 538.493 309.892 538.293 309.542 538.033C311.702 535.043 314.972 533.283 317.462 530.713C318.802 529.333 320.232 528.033 321.492 526.583C325.262 522.223 326.282 517.472 323.872 511.992C322.072 507.902 322.332 507.732 326.472 506.362C334.892 503.582 338.882 496.823 341.462 489.073C344.062 481.253 346.212 473.272 348.572 465.372C350.572 458.672 354.512 453.352 360.042 449.112C366.762 443.962 369.172 437.093 367.352 428.923C365.012 418.463 362.182 408.123 359.952 397.643C357.262 384.983 356.212 372.213 358.882 359.363C360.892 349.713 366.712 342.083 372.142 334.233C374.402 330.973 376.522 327.593 378.972 324.483C384.012 318.063 384.732 310.963 383.152 303.203C380.872 291.943 374.442 283.253 366.302 275.703C357.282 267.633 326.272 243.743 303.302 232.062C291.872 226.253 274.822 222.073 261.322 220.173C266.082 217.783 282.112 217.683 286.562 217.883C297.252 218.353 305.832 220.993 318.132 226.073C332.232 231.883 345.672 239.073 359.392 245.683C366.032 248.883 372.472 252.613 379.852 254.133C390.432 256.313 398.782 253.063 405.012 244.223C411.082 235.623 415.482 225.983 421.522 217.373C429.202 206.403 435.272 201.543 446.832 194.463C452.112 191.233 465.882 186.942 472.312 186.812L471.512 187.183C459.172 196.153 446.302 206.433 438.192 218.943C432.352 227.943 427.352 237.393 423.382 247.403C421.122 253.113 420.642 258.203 425.132 263.203C427.242 265.553 427.512 268.773 427.052 272.053C425.752 281.203 423.082 290.042 421.172 299.062C418.532 311.523 417.742 323.803 421.962 336.173C427.592 352.693 424.422 368.413 417.212 383.843C410.822 397.523 405.032 411.483 398.992 425.323C396.862 430.213 396.732 435.753 393.892 441.243C393.422 436.143 393.932 431.723 393.292 427.343C392.722 423.433 392.792 419.422 390.852 415.812C390.632 415.523 390.412 415.223 390.192 414.923C389.812 415.393 389.852 415.813 390.392 416.143Z" fill="white"/>
<path d="M397.712 232.803C397.752 236.933 396.832 240.713 394.252 243.963C391.412 247.553 385.832 248.453 380.672 246.223C370.212 241.703 362.562 226.983 364.862 215.813C366.912 205.843 375.562 202.203 384.122 207.903C392.972 213.793 397.022 222.413 397.712 232.803Z" fill="white"/>
<path d="M169.822 584.283C169.822 584.753 169.562 584.993 169.042 584.993C167.102 584.993 163.932 584.883 159.512 584.653C155.392 584.453 152.222 584.383 149.982 584.433L147.262 584.473C145.522 584.493 144.602 584.533 144.512 584.583C144.012 584.783 143.772 585.563 143.772 586.933V595.903C143.772 597.593 144.132 598.433 144.852 598.433C147.262 598.433 150.892 598.323 155.742 598.103C160.592 597.883 164.222 597.763 166.632 597.763C167.152 597.763 167.412 597.963 167.412 598.363C167.412 598.783 167.382 599.413 167.322 600.243C167.262 601.073 167.232 601.703 167.232 602.123C167.232 602.573 167.252 603.243 167.302 604.153C167.352 605.063 167.372 605.733 167.372 606.183C167.372 606.483 167.112 606.633 166.592 606.633C164.882 606.633 162.282 606.583 158.792 606.483C155.302 606.383 152.692 606.333 150.962 606.333C147.762 606.333 145.952 606.353 145.532 606.403C144.412 606.523 143.862 606.983 143.862 607.783C143.862 610.013 143.922 613.363 144.052 617.833C144.172 622.303 144.242 625.653 144.242 627.883C144.242 628.623 143.942 629.003 143.352 629.003C142.852 629.003 142.122 628.943 141.142 628.833C140.162 628.723 139.412 628.663 138.892 628.663C138.472 628.663 137.822 628.703 136.952 628.773C136.082 628.843 135.442 628.883 135.012 628.883C134.392 628.883 134.082 628.613 134.082 628.063C134.082 625.313 134.202 621.163 134.432 615.633C134.672 610.103 134.782 605.953 134.782 603.203C134.782 600.653 134.522 592.333 134.002 578.263V577.783C133.972 577.263 134.282 576.963 134.932 576.893C135.132 576.893 136.702 576.933 139.662 577.003C143.562 577.073 147.172 577.093 150.492 577.043C154.982 576.993 160.702 576.743 167.652 576.303C168.592 576.233 169.132 576.643 169.252 577.533C169.222 578.203 169.272 579.223 169.402 580.583C169.672 582.473 169.822 583.713 169.822 584.283Z" fill="white"/>
<path d="M184.302 584.352C184.302 587.402 182.602 588.932 179.202 588.932C175.752 588.932 174.032 587.402 174.032 584.352C174.032 582.992 174.562 581.862 175.632 580.962C176.622 580.122 177.812 579.692 179.202 579.692C180.592 579.692 181.792 580.122 182.792 580.992C183.802 581.872 184.302 582.992 184.302 584.352ZM184.042 594.442C184.042 596.352 183.922 599.242 183.692 603.092C183.452 606.952 183.342 609.852 183.342 611.782C183.342 613.592 183.382 616.302 183.452 619.912C183.522 623.522 183.562 626.222 183.562 628.012C183.562 628.532 183.342 628.792 182.892 628.792H175.632C175.112 628.792 174.852 628.282 174.852 627.262C174.852 625.552 174.892 622.972 174.982 619.542C175.072 616.102 175.112 613.522 175.112 611.782C175.112 609.842 174.972 606.942 174.682 603.072C174.392 599.202 174.252 596.302 174.252 594.362C174.252 593.942 174.512 593.732 175.032 593.732C175.482 593.732 176.172 593.792 177.102 593.922C178.032 594.042 178.732 594.112 179.202 594.112C179.672 594.112 180.372 594.052 181.302 593.922C182.232 593.802 182.932 593.732 183.402 593.732C183.832 593.732 184.042 593.972 184.042 594.442Z" fill="white"/>
<path d="M212.142 622.023C212.142 622.573 212.092 623.313 211.992 624.253C211.872 625.423 211.792 626.173 211.772 626.523C211.742 626.973 211.712 627.243 211.662 627.343C211.562 627.513 211.332 627.693 210.952 627.863C208.922 628.833 205.712 629.313 201.352 629.313C195.542 629.313 192.642 626.683 192.642 621.423C192.642 619.313 192.692 616.143 192.792 611.913C192.892 607.683 192.942 604.513 192.942 602.403C192.942 601.383 192.432 600.843 191.412 600.763C190.492 600.763 189.592 600.753 188.692 600.723C188.172 600.603 187.912 599.583 187.912 597.673C187.912 596.953 187.962 596.193 188.062 595.403C188.132 594.803 188.532 594.443 189.252 594.323C189.872 594.323 190.482 594.313 191.072 594.283C192.212 594.233 192.782 593.723 192.782 592.753C192.782 591.763 192.752 590.243 192.692 588.213C192.632 586.183 192.602 584.653 192.602 583.633C192.602 581.823 192.952 580.913 193.642 580.913C193.862 580.913 196.202 581.303 200.642 582.063C201.212 582.133 201.502 582.413 201.502 582.883C201.502 583.973 201.422 585.613 201.262 587.793C201.102 589.973 201.022 591.613 201.022 592.703C201.022 593.423 201.352 593.783 202.022 593.783H210.952C211.372 593.783 211.582 593.933 211.582 594.233C211.582 594.533 211.542 595.013 211.452 595.663C211.362 596.323 211.322 596.813 211.322 597.133C211.322 597.503 211.332 598.073 211.362 598.843C211.382 599.613 211.402 600.183 211.402 600.553C211.402 601.023 211.052 601.263 210.362 601.263C209.372 601.263 207.872 601.193 205.862 601.063C203.852 600.923 202.352 600.863 201.362 600.863C201.162 600.863 201.012 601.573 200.912 602.983C200.792 604.743 200.722 607.213 200.722 610.393V615.943C200.722 618.073 200.922 619.563 201.322 620.413C201.922 621.703 203.142 622.353 205.002 622.353C205.772 622.353 206.902 622.183 208.392 621.853C209.882 621.513 210.982 621.353 211.702 621.353C211.992 621.353 212.142 621.573 212.142 622.023Z" fill="white"/>
<path d="M250.252 628.123C250.252 628.673 250.002 628.943 249.512 628.943C248.692 628.943 247.472 628.933 245.842 628.903C244.212 628.883 242.992 628.863 242.172 628.863C241.722 628.863 241.502 628.503 241.502 627.783C241.502 626.563 241.542 624.723 241.612 622.233C241.682 619.753 241.722 617.893 241.722 616.653C241.722 615.663 241.712 614.173 241.682 612.203C241.652 610.233 241.642 608.753 241.642 607.753C241.642 604.923 241.232 602.923 240.412 601.763C239.422 600.373 237.582 599.683 234.902 599.683C233.662 599.683 231.932 600.373 229.732 601.763C227.402 603.223 226.232 604.533 226.232 605.673V628.003C226.232 628.623 225.992 628.933 225.522 628.933C224.732 628.933 223.532 628.923 221.952 628.893C220.362 628.873 219.172 628.853 218.382 628.853C217.862 628.853 217.602 628.563 217.602 627.993C217.602 626.033 217.632 623.093 217.692 619.173C217.752 615.253 217.782 612.303 217.782 610.313C217.782 605.023 217.222 600.153 216.112 595.683C216.042 595.463 216.002 595.303 216.002 595.203C216.002 594.953 216.162 594.783 216.482 594.683C216.652 594.663 218.072 594.433 220.742 593.993C223.412 593.563 224.802 593.343 224.932 593.343C225.082 593.343 225.182 593.543 225.232 593.943C225.352 595.483 225.642 597.033 226.092 598.593C227.382 597.573 229.082 596.313 231.192 594.793C233.802 593.203 236.312 592.413 238.752 592.413C243.412 592.413 246.602 593.763 248.322 596.473C249.592 598.463 250.222 601.673 250.222 606.113C250.222 606.883 250.202 608.063 250.162 609.653C250.122 611.243 250.102 612.433 250.102 613.223C250.102 614.883 250.122 617.363 250.172 620.663C250.232 623.983 250.252 626.463 250.252 628.123Z" fill="white"/>
<path d="M288.852 608.883C288.852 610.723 288.062 611.943 286.472 612.563C285.402 612.963 277.722 613.693 263.432 614.763C263.752 616.943 264.962 618.803 267.042 620.343C269.022 621.803 271.162 622.543 273.442 622.543C277.362 622.543 280.962 621.273 284.232 618.743C284.632 618.423 285.022 618.093 285.422 617.773C285.622 617.773 285.752 617.793 285.812 617.843C285.872 617.893 286.342 618.753 287.212 620.433C288.082 622.113 288.512 623.003 288.512 623.133C288.512 623.283 288.312 623.563 287.912 623.993C284.262 627.863 279.592 629.803 273.882 629.803C268.122 629.803 263.532 628.083 260.112 624.653C256.692 621.213 254.972 616.633 254.972 610.903C254.972 605.793 256.612 601.333 259.882 597.543C263.332 593.593 267.562 591.623 272.572 591.623C277.232 591.623 281.132 593.333 284.262 596.763C287.332 600.073 288.852 604.123 288.852 608.883ZM279.992 606.613C279.992 604.553 279.182 602.733 277.552 601.143C275.922 599.553 274.092 598.763 272.062 598.763C269.782 598.763 267.752 599.683 265.972 601.513C264.202 603.353 263.312 605.413 263.312 607.693C263.312 608.213 263.762 608.473 264.652 608.473C268.322 608.473 272.712 608.103 277.832 607.353C279.272 607.153 279.992 606.913 279.992 606.613Z" fill="white"/>
<path d="M311.482 617.402C311.482 621.102 310.002 624.062 307.052 626.302C304.372 628.332 301.112 629.352 297.262 629.352C295.772 629.352 294.932 629.312 294.732 629.242C294.312 629.042 294.102 628.432 294.102 627.422C294.102 626.872 294.032 626.062 293.892 624.962C293.752 623.872 293.692 623.062 293.692 622.542C293.692 622.222 293.912 622.012 294.362 621.912C294.682 621.842 295.142 621.842 295.742 621.912C296.512 621.982 296.882 622.022 296.862 622.022C301.552 622.022 303.892 620.582 303.892 617.702C303.892 616.342 302.862 615.082 300.802 613.942C297.452 612.102 295.532 610.982 295.032 610.552C292.972 608.792 291.942 606.482 291.942 603.632C291.942 599.912 293.342 597.002 296.152 594.922C298.682 593.062 301.882 592.132 305.752 592.132C306.102 592.132 306.352 592.292 306.512 592.612C306.672 592.932 306.982 593.942 307.442 595.622C307.902 597.312 308.132 598.332 308.132 598.672C308.132 598.942 307.892 599.122 307.422 599.192C305.832 599.412 304.232 599.622 302.622 599.822C300.712 600.342 299.752 601.382 299.752 602.952C299.752 604.072 300.752 605.202 302.762 606.342C305.742 608.002 307.622 609.212 308.422 609.952C310.462 611.892 311.482 614.382 311.482 617.402Z" fill="white"/>
<path d="M334.262 617.402C334.262 621.102 332.782 624.062 329.832 626.302C327.152 628.332 323.892 629.352 320.042 629.352C318.552 629.352 317.712 629.312 317.512 629.242C317.092 629.042 316.882 628.432 316.882 627.422C316.882 626.872 316.812 626.062 316.672 624.962C316.532 623.872 316.472 623.062 316.472 622.542C316.472 622.222 316.692 622.012 317.142 621.912C317.462 621.842 317.922 621.842 318.522 621.912C319.292 621.982 319.662 622.022 319.642 622.022C324.332 622.022 326.672 620.582 326.672 617.702C326.672 616.342 325.642 615.082 323.582 613.942C320.232 612.102 318.312 610.982 317.812 610.552C315.752 608.792 314.722 606.482 314.722 603.632C314.722 599.912 316.122 597.002 318.932 594.922C321.462 593.062 324.662 592.132 328.532 592.132C328.882 592.132 329.132 592.292 329.292 592.612C329.452 592.932 329.762 593.942 330.222 595.622C330.682 597.312 330.912 598.332 330.912 598.672C330.912 598.942 330.672 599.122 330.202 599.192C328.612 599.412 327.012 599.622 325.402 599.822C323.492 600.342 322.532 601.382 322.532 602.952C322.532 604.072 323.532 605.202 325.542 606.342C328.522 608.002 330.402 609.212 331.202 609.952C333.242 611.892 334.262 614.382 334.262 617.402Z" fill="white"/>
<path d="M386.782 622.652C386.782 622.922 386.752 623.352 386.692 623.922C386.632 624.492 386.602 624.922 386.602 625.222C386.602 625.442 386.622 625.792 386.672 626.262C386.722 626.732 386.742 627.092 386.742 627.342C386.742 628.362 386.162 628.872 384.992 628.872C384.322 628.872 383.332 628.892 382.012 628.942C380.692 628.992 379.702 629.012 379.032 629.012C376.972 629.012 374.712 628.232 372.262 626.672C370.152 625.282 368.352 623.652 366.862 621.792C364.332 624.672 362.062 626.702 360.052 627.892C357.492 629.402 354.532 630.162 351.152 630.162C347.382 630.162 344.342 628.842 342.032 626.212C339.822 623.702 338.722 620.542 338.722 616.722C338.722 612.632 339.872 609.152 342.182 606.302C343.992 604.022 346.962 601.702 351.082 599.342C349.642 595.592 348.922 592.392 348.922 589.742C348.922 585.572 350.022 582.262 352.232 579.802C354.542 577.292 357.752 576.042 361.872 576.042C365.172 576.042 367.962 576.862 370.242 578.502C372.802 580.342 374.072 582.842 374.072 586.022C374.072 589.542 372.612 592.662 369.682 595.362C368.092 596.822 365.092 598.822 360.672 601.352C362.932 605.122 365.212 608.352 367.522 611.032C370.322 607.512 372.512 605.202 374.072 604.112C376.482 602.422 379.502 601.582 383.152 601.582C384.222 601.582 384.912 601.642 385.232 601.772C385.872 602.022 386.202 602.562 386.202 603.412C386.202 605.622 385.622 607.582 384.452 609.292C383.312 609.392 382.182 609.482 381.062 609.552C379.702 609.702 378.602 609.962 377.782 610.332C375.372 611.472 373.332 613.262 371.642 615.692C373.652 617.952 375.422 619.472 376.962 620.272C378.702 621.162 380.952 621.612 383.732 621.612C384.972 621.612 385.582 621.612 385.552 621.612C386.382 621.732 386.782 622.082 386.782 622.652ZM363.032 617.222C358.812 612.312 355.782 608.262 353.952 605.092C349.242 608.092 346.882 611.682 346.882 615.852C346.882 617.862 347.462 619.522 348.632 620.842C349.852 622.232 351.452 622.922 353.432 622.922C356.482 622.912 359.682 621.012 363.032 617.222ZM367.162 586.252C367.162 584.792 366.692 583.632 365.752 582.792C364.812 581.952 363.602 581.522 362.142 581.522C358.022 581.522 355.962 583.602 355.962 587.772C355.962 589.932 356.492 592.652 357.562 595.922C360.592 594.232 362.622 592.962 363.662 592.092C365.992 590.232 367.162 588.282 367.162 586.252Z" fill="white"/>
<path d="M432.332 612.793C432.332 617.113 431.032 620.823 428.422 623.923C425.672 627.173 422.172 628.803 417.922 628.803C416.332 628.803 413.942 628.763 410.762 628.693C407.572 628.623 405.182 628.583 403.602 628.583C402.432 628.583 400.682 628.633 398.332 628.733C395.992 628.833 394.232 628.883 393.062 628.883C392.442 628.883 392.132 628.593 392.132 628.023C392.132 625.293 392.262 621.193 392.522 615.723C392.782 610.253 392.912 606.153 392.912 603.423C392.912 600.543 392.782 596.223 392.522 590.453C392.262 584.683 392.132 580.363 392.132 577.483C392.132 576.933 392.442 576.663 393.062 576.663C395.272 576.663 398.592 576.673 403.032 576.703C407.472 576.733 410.812 576.743 413.042 576.743C418.252 576.743 422.412 577.713 425.512 579.643C429.282 582.003 431.172 585.663 431.172 590.623C431.172 592.333 430.672 594.113 429.682 595.963C428.692 597.813 427.482 599.203 426.072 600.153C425.352 600.623 424.992 600.933 424.992 601.083C424.992 601.233 425.352 601.503 426.072 601.903C427.962 602.943 429.472 604.483 430.612 606.503C431.762 608.503 432.332 610.603 432.332 612.793ZM421.872 591.423C421.872 587.923 420.312 585.563 417.182 584.353C415.292 583.633 412.202 583.273 407.912 583.273C403.742 583.273 401.662 583.583 401.662 584.203C401.662 585.023 401.622 586.253 401.552 587.883C401.482 589.523 401.442 590.763 401.442 591.603C401.442 592.173 401.452 593.053 401.482 594.243C401.502 595.433 401.522 596.323 401.522 596.923C401.522 597.643 404.322 598.003 409.932 598.003C417.892 598.013 421.872 595.823 421.872 591.423ZM422.882 612.413C422.882 609.383 421.532 607.343 418.822 606.273C417.112 605.583 414.442 605.233 410.822 605.233C404.572 605.233 401.442 605.563 401.442 606.233V612.333C401.442 613.223 401.462 614.593 401.512 616.423C401.562 618.263 401.582 619.633 401.582 620.553C401.582 620.803 402.372 620.983 403.962 621.113C405.552 621.233 407.912 621.303 411.032 621.303C414.952 621.303 417.772 620.793 419.482 619.773C421.752 618.443 422.882 615.993 422.882 612.413Z" fill="white"/>
<path d="M474.802 595.182C474.802 595.282 474.762 595.502 474.692 595.852C473.722 601.532 473.242 606.432 473.242 610.552C473.242 610.802 473.552 616.372 474.172 627.262L474.212 627.782C474.232 628.502 473.912 628.862 473.222 628.862C472.542 628.862 471.512 628.942 470.132 629.102C468.752 629.262 467.732 629.342 467.062 629.342C466.592 629.342 466.232 628.472 465.982 626.732C465.732 624.992 465.502 624.132 465.272 624.132C465.122 624.132 464.452 624.612 463.262 625.582C461.802 626.772 460.432 627.682 459.172 628.302C457.212 629.292 455.252 629.792 453.292 629.792C448.482 629.792 444.422 627.872 441.122 624.022C437.992 620.352 436.432 616.072 436.432 611.182C436.432 605.672 438.012 601.122 441.162 597.522C444.462 593.772 448.802 591.902 454.192 591.902C457.992 591.902 461.302 593.222 464.132 595.842C464.552 596.342 465.212 597.062 466.102 598.002C466.172 598.072 466.252 598.112 466.322 598.112C466.472 598.112 466.682 597.332 466.952 595.772C467.222 594.212 467.572 593.422 467.992 593.422C468.662 593.422 469.912 593.612 471.752 593.982C473.782 594.442 474.802 594.842 474.802 595.182ZM465.312 610.742C465.312 607.692 464.402 605.072 462.592 602.892C460.682 600.532 458.242 599.352 455.262 599.352C452.282 599.352 449.802 600.522 447.822 602.852C445.912 605.082 444.952 607.712 444.952 610.742C444.952 613.742 445.902 616.352 447.822 618.562C449.802 620.872 452.292 622.022 455.262 622.022C458.162 622.022 460.592 620.842 462.552 618.482C464.392 616.272 465.312 613.692 465.312 610.742Z" fill="white"/>
<path d="M490.282 577.243L490.242 577.723C489.692 586.953 489.422 594.883 489.422 601.503C489.422 604.453 489.472 608.883 489.572 614.773C489.672 620.663 489.722 625.073 489.722 628.003C489.722 628.573 489.522 628.863 489.122 628.863H482.012C481.562 628.863 481.342 628.573 481.342 628.003C481.342 625.073 481.362 620.663 481.412 614.773C481.462 608.883 481.482 604.453 481.482 601.503C481.482 598.823 481.352 594.793 481.092 589.423C480.832 584.053 480.702 580.043 480.702 577.383C480.702 576.883 480.962 576.643 481.482 576.643C481.932 576.643 482.602 576.683 483.492 576.753C484.382 576.823 485.052 576.863 485.502 576.863C485.972 576.863 486.672 576.823 487.582 576.753C488.502 576.683 489.182 576.643 489.632 576.643C490.082 576.643 490.312 576.853 490.282 577.243Z" fill="white"/>
<path d="M533.832 595.182C533.832 595.282 533.792 595.502 533.722 595.852C532.752 601.532 532.272 606.432 532.272 610.552C532.272 610.802 532.582 616.372 533.202 627.262L533.242 627.782C533.262 628.502 532.942 628.862 532.252 628.862C531.572 628.862 530.542 628.942 529.162 629.102C527.782 629.262 526.762 629.342 526.092 629.342C525.622 629.342 525.262 628.472 525.012 626.732C524.762 624.992 524.532 624.132 524.302 624.132C524.152 624.132 523.482 624.612 522.292 625.582C520.832 626.772 519.462 627.682 518.202 628.302C516.242 629.292 514.282 629.792 512.322 629.792C507.512 629.792 503.452 627.872 500.152 624.022C497.022 620.352 495.462 616.072 495.462 611.182C495.462 605.672 497.042 601.122 500.192 597.522C503.492 593.772 507.832 591.902 513.222 591.902C517.022 591.902 520.332 593.222 523.162 595.842C523.582 596.342 524.242 597.062 525.132 598.002C525.202 598.072 525.282 598.112 525.352 598.112C525.502 598.112 525.712 597.332 525.982 595.772C526.252 594.212 526.602 593.422 527.022 593.422C527.692 593.422 528.942 593.612 530.782 593.982C532.812 594.442 533.832 594.842 533.832 595.182ZM524.342 610.742C524.342 607.692 523.432 605.072 521.622 602.892C519.712 600.532 517.272 599.352 514.292 599.352C511.312 599.352 508.832 600.522 506.852 602.852C504.942 605.082 503.982 607.712 503.982 610.742C503.982 613.742 504.942 616.352 506.852 618.562C508.832 620.872 511.322 622.022 514.292 622.022C517.192 622.022 519.622 620.842 521.582 618.482C523.422 616.272 524.342 613.692 524.342 610.742Z" fill="white"/>
<path d="M572.692 628.123C572.692 628.673 572.442 628.943 571.952 628.943C571.132 628.943 569.912 628.933 568.282 628.903C566.652 628.883 565.432 628.863 564.612 628.863C564.162 628.863 563.942 628.503 563.942 627.783C563.942 626.563 563.982 624.723 564.052 622.233C564.122 619.753 564.162 617.893 564.162 616.653C564.162 615.663 564.152 614.173 564.122 612.203C564.102 610.233 564.082 608.753 564.082 607.753C564.082 604.923 563.672 602.923 562.852 601.763C561.862 600.373 560.022 599.683 557.342 599.683C556.102 599.683 554.372 600.373 552.172 601.763C549.842 603.223 548.672 604.533 548.672 605.673V628.003C548.672 628.623 548.432 628.933 547.962 628.933C547.172 628.933 545.972 628.923 544.392 628.893C542.802 628.873 541.612 628.853 540.822 628.853C540.302 628.853 540.042 628.563 540.042 627.993C540.042 626.033 540.072 623.093 540.132 619.173C540.192 615.253 540.222 612.303 540.222 610.313C540.222 605.023 539.662 600.153 538.542 595.683C538.472 595.463 538.432 595.303 538.432 595.203C538.432 594.953 538.592 594.783 538.912 594.683C539.082 594.663 540.502 594.433 543.172 593.993C545.842 593.563 547.232 593.343 547.362 593.343C547.512 593.343 547.612 593.543 547.662 593.943C547.782 595.483 548.072 597.033 548.522 598.593C549.812 597.573 551.512 596.313 553.622 594.793C556.222 593.203 558.742 592.413 561.182 592.413C565.842 592.413 569.032 593.763 570.752 596.473C572.022 598.463 572.652 601.673 572.652 606.113C572.652 606.883 572.632 608.063 572.592 609.653C572.552 611.243 572.532 612.433 572.532 613.223C572.532 614.883 572.552 617.363 572.602 620.663C572.662 623.983 572.692 626.463 572.692 628.123Z" fill="white"/>
<path d="M605.742 595.112C605.742 595.662 605.452 596.872 604.882 598.762C604.312 600.652 603.912 601.592 603.692 601.592C602.572 601.092 601.452 600.602 600.322 600.102C599.192 599.602 597.962 599.362 596.622 599.362C593.572 599.362 591.022 600.492 588.992 602.752C586.952 605.012 585.942 607.682 585.942 610.752C585.942 613.782 586.962 616.402 588.992 618.602C591.072 620.882 593.622 622.022 596.622 622.022C598.282 622.022 599.922 621.612 601.532 620.792C603.142 619.972 603.852 619.562 603.652 619.562C603.972 619.562 604.332 620.602 604.732 622.692C605.102 624.582 605.292 625.882 605.292 626.602C605.292 627.372 603.842 628.132 600.942 628.872C598.512 629.492 596.712 629.802 595.542 629.802C590.432 629.802 586.112 627.892 582.592 624.072C579.142 620.352 577.422 615.912 577.422 610.752C577.422 605.492 579.112 601.022 582.482 597.352C585.952 593.582 590.282 591.692 595.472 591.692C598.942 591.692 602.122 592.572 605.002 594.332C605.492 594.622 605.742 594.882 605.742 595.112Z" fill="white"/>
<path d="M641.922 608.883C641.922 610.723 641.132 611.943 639.542 612.563C638.472 612.963 630.792 613.693 616.502 614.763C616.822 616.943 618.032 618.803 620.112 620.343C622.102 621.803 624.232 622.543 626.512 622.543C630.432 622.543 634.032 621.273 637.302 618.743C637.702 618.423 638.092 618.093 638.492 617.773C638.692 617.773 638.822 617.793 638.882 617.843C638.942 617.893 639.412 618.753 640.282 620.433C641.152 622.113 641.582 623.003 641.582 623.133C641.582 623.283 641.382 623.563 640.982 623.993C637.332 627.863 632.652 629.803 626.952 629.803C621.192 629.803 616.602 628.083 613.182 624.653C609.762 621.213 608.042 616.633 608.042 610.903C608.042 605.793 609.682 601.333 612.952 597.543C616.402 593.593 620.632 591.623 625.642 591.623C630.302 591.623 634.202 593.333 637.332 596.763C640.392 600.073 641.922 604.123 641.922 608.883ZM633.062 606.613C633.062 604.553 632.252 602.733 630.622 601.143C628.992 599.553 627.162 598.763 625.132 598.763C622.852 598.763 620.822 599.683 619.042 601.513C617.272 603.353 616.382 605.413 616.382 607.693C616.382 608.213 616.832 608.473 617.722 608.473C621.392 608.473 625.782 608.103 630.902 607.353C632.342 607.153 633.062 606.913 633.062 606.613Z" fill="white"/>
</svg>
