<?xml version="1.0" encoding="utf-8"?>
<!-- Generator: Adobe Illustrator 27.1.1, SVG Export Plug-In . SVG Version: 6.00 Build 0)  -->
<svg version="1.1" id="Capa_1" xmlns="http://www.w3.org/2000/svg" xmlns:xlink="http://www.w3.org/1999/xlink" x="0px" y="0px"
	 viewBox="0 0 675.64 609.43" style="enable-background:new 0 0 675.64 609.43;" xml:space="preserve">
<style type="text/css">
	.st0{fill:#009EE2;}
	.st1{fill:#93C01F;}
	.st2{fill:#5F5E6A;}
	.st3{fill:#605F6A;}
	.st4{fill:#878787;}
</style>
<g>
	<path class="st0" d="M156.96,235.21c2.86,0,5.51,0.89,7.7,2.4c1.96-0.63,4.03-0.96,6.17-0.96c5.29,0,10.25,2.05,13.98,5.76
		c0.48,0.48,0.93,0.98,1.35,1.5c1.4-0.95,3-1.64,4.71-2.01c-1.11-39.21,8.29-83.68,52.02-60.24c26.45,14.18,49.41,29.66,80.9,23.43
		c21.58-4.54,34.63-11.67,51.41-25.72c-25.52,9.28-47.38,14.13-74.19,3.77c-28.74-11.11-46.63-39.25-79.47-41.68
		c-53.47-3.3-70.27,47.38-71.47,93.75H156.96z"/>
	<path class="st1" d="M479.65,173.93c9.24,26.46,11.68,53.39,8.64,79.51c4.38-2.29,9.21-3.62,14.46-3.62c2.35,0,4.74,0.28,7.31,0.85
		c0.12,0.03,0.23,0.05,0.35,0.08c3.9,0.97,10.94,3.72,15.82,11.11c5.17-31.38,3.47-63.68-6.54-93.71
		c-11.76-35.3-46.15-74.01-87.47-62.39c-38.36,10.78-57.58,89.68-124.49,75.94c49.93,14.02,76.71-15.35,118.93-37.99
		C451.59,130.49,470.01,147.24,479.65,173.93z"/>
	<g>
		<g>
			<path class="st2" d="M154.69,255.5h-42.45v30.01h40.08v4.32h-40.08v33.2h-4.52v-71.95h46.97V255.5z"/>
			<polygon class="st3" points="114.51,325.29 105.45,325.29 105.45,248.81 156.96,248.81 156.96,257.76 114.51,257.76 
				114.51,283.24 154.59,283.24 154.59,292.09 114.51,292.09 			"/>
		</g>
		<g>
			<path class="st2" d="M168,259.15c-0.72-0.72-1.08-1.63-1.08-2.72c0-1.1,0.36-2.02,1.08-2.77c0.72-0.75,1.66-1.13,2.83-1.13
				c1.1,0,2.02,0.38,2.77,1.13c0.75,0.76,1.13,1.68,1.13,2.77c0,1.1-0.38,2-1.13,2.72c-0.76,0.72-1.68,1.08-2.77,1.08
				C169.66,260.22,168.72,259.86,168,259.15z M168.67,272.25h4.32v50.77h-4.32V272.25z"/>
			<path class="st3" d="M175.25,325.29h-8.85v-55.31h8.85V325.29z M170.83,262.49c-1.76,0-3.29-0.6-4.43-1.74
				c-1.14-1.14-1.74-2.64-1.74-4.33c0-1.67,0.59-3.17,1.7-4.34c1.15-1.2,2.69-1.83,4.47-1.83c1.69,0,3.2,0.62,4.38,1.79
				c1.18,1.18,1.8,2.7,1.8,4.38c0,1.71-0.63,3.22-1.83,4.36C173.99,261.9,172.49,262.49,170.83,262.49z M170.83,254.78
				c-0.68,0-0.98,0.22-1.19,0.43c-0.32,0.33-0.45,0.69-0.45,1.21c0,0.62,0.21,0.92,0.41,1.12c0.19,0.19,0.51,0.41,1.22,0.41
				c0.52,0,0.88-0.14,1.21-0.45c0.3-0.29,0.43-0.6,0.43-1.08c0-0.49-0.14-0.84-0.47-1.17C171.67,254.92,171.32,254.78,170.83,254.78
				z"/>
		</g>
		<g>
			<path class="st2" d="M220.26,321.17c-3.7,1.85-7.16,2.77-10.38,2.77c-5.14,0-8.74-1.34-10.79-4.01
				c-2.06-2.67-3.08-6.71-3.08-12.13v-31.55h-10.89v-4.01h10.89v-15.01l4.32-0.41v15.42h17.58v4.01h-17.58v31.55
				c0,4.04,0.65,7.09,1.95,9.15c1.3,2.05,3.84,3.08,7.61,3.08c1.16,0,2.57-0.24,4.21-0.72c1.64-0.48,3.15-1.06,4.52-1.75
				L220.26,321.17z"/>
			<path class="st3" d="M209.88,326.22c-5.86,0-10.09-1.65-12.59-4.89c-2.39-3.11-3.55-7.53-3.55-13.51v-29.29h-10.89v-8.54h10.89
				v-14.8l8.85-0.84v15.64h17.58v8.54h-17.58v29.29c0,3.59,0.54,6.26,1.6,7.94c0.85,1.35,2.77,2.03,5.69,2.03
				c0.95,0,2.15-0.21,3.58-0.63c1.5-0.44,2.9-0.97,4.15-1.6l2.1-1.05l3.53,7.72l-1.96,0.98
				C217.28,325.2,213.44,326.22,209.88,326.22z"/>
		</g>
		<g>
			<path class="st2" d="M269.85,274.77c3.87,2.23,6.89,5.33,9.05,9.3c2.16,3.98,3.24,8.5,3.24,13.57c0,5.07-1.08,9.59-3.24,13.57
				c-2.16,3.98-5.17,7.08-9.05,9.3c-3.87,2.23-8.27,3.34-13.21,3.34c-4.93,0-9.34-1.1-13.21-3.29c-3.87-2.19-6.73-5.14-8.58-8.84
				v11.31h-4.11v-71.95h4.32v32.27c1.92-3.7,4.78-6.61,8.58-8.74c3.8-2.12,8.14-3.19,13-3.19
				C261.58,271.43,265.98,272.54,269.85,274.77z M267.49,317.06c3.25-1.85,5.79-4.45,7.61-7.81c1.81-3.36,2.72-7.23,2.72-11.61
				c0-4.38-0.91-8.26-2.72-11.62c-1.82-3.36-4.35-5.96-7.61-7.81c-3.25-1.85-6.94-2.77-11.05-2.77c-4.18,0-7.88,0.93-11.1,2.77
				c-3.22,1.85-5.74,4.46-7.55,7.81c-1.82,3.36-2.72,7.23-2.72,11.62c0,4.39,0.91,8.26,2.72,11.61c1.82,3.36,4.33,5.96,7.55,7.81
				c3.22,1.85,6.92,2.77,11.1,2.77C260.55,319.84,264.24,318.91,267.49,317.06z"/>
			<path class="st3" d="M256.65,326.11c-5.31,0-10.13-1.21-14.33-3.58c-1.96-1.11-3.7-2.41-5.2-3.89v6.65h-8.65v-76.48h8.85v27.7
				c1.51-1.48,3.25-2.78,5.21-3.87c4.13-2.31,8.88-3.47,14.11-3.47c5.31,0,10.13,1.23,14.34,3.64l0,0
				c4.22,2.43,7.56,5.86,9.91,10.18c2.33,4.29,3.51,9.22,3.51,14.65c0,5.43-1.18,10.36-3.51,14.65c-2.35,4.33-5.68,7.76-9.91,10.18
				C266.78,324.89,261.96,326.11,256.65,326.11z M256.44,277.7c-3.76,0-7.11,0.83-9.97,2.47c-2.83,1.63-5.09,3.96-6.69,6.92
				c-1.63,3.01-2.45,6.55-2.45,10.54c0,3.98,0.83,7.53,2.45,10.53c1.63,3.01,3.81,5.27,6.69,6.92c2.86,1.64,6.21,2.47,9.97,2.47
				c3.7,0,7.04-0.83,9.93-2.48v0c2.9-1.65,5.11-3.91,6.73-6.92c1.63-3.01,2.45-6.55,2.45-10.53c0-3.98-0.83-7.53-2.45-10.54
				c-1.6-2.96-3.87-5.29-6.73-6.92C263.48,278.54,260.13,277.7,256.44,277.7z M233.01,302.95l0.39,0.78
				c-0.16-0.78-0.29-1.57-0.39-2.39V302.95z M233.01,292.24v1.69c0.1-0.85,0.24-1.67,0.41-2.48L233.01,292.24z"/>
		</g>
		<g>
			<path class="st2" d="M343.7,272.25v50.77h-4.11l-0.1-11.31c-1.92,3.77-4.81,6.73-8.69,8.89c-3.87,2.16-8.24,3.24-13.1,3.24
				c-4.93,0-9.32-1.11-13.16-3.34c-3.84-2.23-6.84-5.33-8.99-9.3c-2.16-3.97-3.24-8.49-3.24-13.57c0-5.07,1.08-9.59,3.24-13.57
				c2.16-3.97,5.15-7.07,8.99-9.3c3.84-2.23,8.22-3.34,13.16-3.34c4.86,0,9.23,1.1,13.1,3.29c3.87,2.19,6.77,5.17,8.69,8.94
				l0.1-11.41H343.7z M329.05,317.06c3.25-1.85,5.79-4.45,7.61-7.81c1.81-3.36,2.72-7.23,2.72-11.61c0-4.38-0.91-8.26-2.72-11.62
				c-1.82-3.36-4.35-5.96-7.61-7.81c-3.25-1.85-6.94-2.77-11.05-2.77c-4.18,0-7.88,0.93-11.1,2.77c-3.22,1.85-5.74,4.46-7.55,7.81
				c-1.82,3.36-2.72,7.23-2.72,11.62c0,4.39,0.91,8.26,2.72,11.61c1.82,3.36,4.33,5.96,7.55,7.81c3.22,1.85,6.92,2.77,11.1,2.77
				C322.12,319.84,325.8,318.91,329.05,317.06z"/>
			<path class="st3" d="M317.7,326.11c-5.32,0-10.13-1.23-14.29-3.65c-4.18-2.43-7.5-5.85-9.85-10.18
				c-2.33-4.29-3.51-9.22-3.51-14.65c0-5.43,1.18-10.36,3.51-14.65c2.35-4.33,5.67-7.75,9.85-10.18c4.17-2.42,8.98-3.65,14.29-3.65
				c5.24,0,10.02,1.21,14.22,3.58c2.02,1.15,3.81,2.5,5.36,4.05l0.06-6.81h8.63v55.31h-8.63l-0.06-6.72
				c-1.55,1.55-3.35,2.89-5.38,4.02C327.71,324.93,322.93,326.11,317.7,326.11z M318.01,277.7c-3.76,0-7.11,0.83-9.97,2.47
				c-2.83,1.63-5.08,3.96-6.69,6.92c-1.63,3.01-2.45,6.55-2.45,10.54c0,3.98,0.83,7.53,2.45,10.53c1.63,3.01,3.81,5.27,6.69,6.92
				c2.86,1.64,6.21,2.47,9.97,2.47c3.7,0,7.03-0.83,9.93-2.48v0c2.9-1.65,5.11-3.91,6.73-6.92c1.63-3.01,2.45-6.55,2.45-10.53
				c0-3.98-0.83-7.53-2.45-10.54c-1.6-2.96-3.87-5.29-6.73-6.92C325.04,278.54,321.7,277.7,318.01,277.7z M341.43,301.35
				c-0.09,0.77-0.21,1.52-0.37,2.26l0.37-0.72V301.35z M341.1,291.82c0.14,0.69,0.25,1.39,0.33,2.1v-1.45L341.1,291.82z"/>
		</g>
	</g>
	<path class="st1" d="M241.3,92.99c0.01-0.75-0.22-6.2,0.2-6.27c2.7-0.48,5.41-0.97,8.11-1.42c12.9-2.16,26.09-3.1,39.14-2.08
		c12.69,0.98,25.79,3.87,36.58,10.88c10.78,7.01,17.66,18.08,18.13,31.1c0.46,12.77-5.01,25.41-12.12,35.77
		c2.16-10.33,4.29-21.19,2.6-31.74c-1.53-9.56-6.7-17.21-15.2-21.86c-9.05-4.96-19.8-6.58-29.97-7.32
		c-10.41-0.76-20.89-0.42-31.3,0.35c1.82,5.8,7.24,9.55,12.15,12.61c5.9,3.68,12.17,6.72,18.13,10.29
		c11.33,6.77,22.1,15.83,25.46,29.2c-9.37-14.55-25.81-19.47-41.17-25.15c-7.71-2.85-15.59-6.15-21.64-11.88
		C244.2,109.59,241.19,101.5,241.3,92.99z"/>
	<path class="st4" d="M73.93,442.76c-5.02-9.23-3.85-18.55,3.07-22.1c6.24-3.2,15.62,1.47,20.33,10.28
		c3.9,7.3,8.05,14.45,12.43,21.48c4.52,7.29,9.23,14.44,14.25,21.38c4.33,5.97,5.27,14.08,2.3,19.25c-2.9,5.05-9.33,6.41-15.18,3.59
		c-5.3-2.56-8.51-7.63-11.86-12.52C90.11,470.76,81.67,456.98,73.93,442.76z"/>
	<path class="st4" d="M87.17,404.79c-8.25-14.42-2.54-20.56,4.58-23.8c6.42-2.92,11.76-0.62,19.52,13.12
		c6.44,11.39,19.92,29.43,26.86,40.56c7.16,11.54,21.74,31.28,29.4,42.44c6.59,9.61,7.55,15.99,3.62,20.47
		c-4.45,5.05-12.33,5.79-19.86,0.26c-6.83-5.02-11.88-13.06-17.06-20.89C120.09,455.59,99.88,427.02,87.17,404.79z"/>
	<path class="st4" d="M113.11,384.93c-8.92-15.58-2.74-22.22,4.95-25.72c6.93-3.15,12.7-0.66,21.09,14.17
		c6.96,12.31,21.53,31.79,29.02,43.82c7.73,12.46,23.49,33.8,31.76,45.86c7.12,10.38,8.16,17.28,3.91,22.11
		c-4.8,5.46-13.32,6.26-21.46,0.28c-7.38-5.42-12.84-14.12-18.43-22.57C148.69,439.81,126.85,408.94,113.11,384.93z"/>
	<path class="st4" d="M503.1,390c-1.42-4.24-6.03-8.53-11.12-10.08c-5.22-1.59-10.19-0.23-11.78,3.25
		c-0.12,0.26-0.25,0.52-0.38,0.78c-11.25-3.28-65.68-18.07-140.65-20.06c0,0-91.7,1.74-149.14,20.01c-0.02-0.04-0.04-0.08-0.06-0.13
		c-1.59-3.48-6.56-4.83-11.78-3.25c-5.09,1.55-9.69,5.83-11.12,10.08c-1.29,3.85,0.33,6.48,1.74,9.2
		c3.85,7.42,8.39,14.4,13.64,20.93c3.41,4.24,10.41,4.25,16.79-0.18c4.16-2.89,6.44-7.27,6.14-10.98
		c11.08-4.74,49.44-17.46,140.25-16.24c0,0,49.79-0.72,119.18,15.54c-0.35,3.73,1.93,8.15,6.13,11.07
		c6.37,4.43,13.38,4.42,16.79,0.18c5.25-6.53,9.79-13.51,13.64-20.93C502.77,396.49,504.39,393.85,503.1,390z"/>
	<g>
		<path class="st1" d="M476.07,370.38C476.08,370.38,476.08,370.37,476.07,370.38c8.8-10.29,16.67-21.5,23.45-33.4
			c-3.06,1.04-6.24,1.58-9.5,1.58c-10.75,0-19.29-5.18-24.28-13.86c-7.06,13.36-15.53,26.04-25.14,37.8
			C456.39,365.46,468.52,368.39,476.07,370.38z"/>
	</g>
	<g>
		<path class="st0" d="M193.05,370.37c10.93-3.13,22.75-5.74,34.77-7.9c-4.47-7.49-8.55-15.24-12.24-23.16
			c-1.91,0.33-3.81,0.51-5.69,0.51c-11.63,0-18.43-4.56-22.27-8.88c-2.15,4.69-6.87,7.95-12.36,7.95h-3.85
			c4.2,9.96,9,19.72,14.36,29.13C188.4,368.39,190.87,369.19,193.05,370.37z"/>
	</g>
	<path class="st4" d="M604.32,436.21c5.02-9.23,3.85-18.55-3.07-22.1c-6.24-3.2-15.62,1.47-20.33,10.28
		c-3.9,7.3-8.05,14.45-12.43,21.48c-4.52,7.29-9.23,14.44-14.25,21.38c-4.33,5.97-5.27,14.08-2.3,19.25
		c2.9,5.05,9.33,6.41,15.18,3.59c5.3-2.56,8.51-7.63,11.86-12.52C588.14,464.22,596.58,450.44,604.32,436.21z"/>
	<path class="st4" d="M591.08,398.25c8.25-14.42,2.54-20.56-4.58-23.8c-6.42-2.92-11.76-0.62-19.52,13.12
		c-6.44,11.39-19.92,29.43-26.86,40.56c-7.16,11.54-21.74,31.28-29.4,42.44c-6.59,9.61-7.55,15.99-3.62,20.47
		c4.45,5.05,12.33,5.79,19.86,0.26c6.83-5.02,11.88-13.06,17.06-20.89C558.16,449.05,578.37,420.48,591.08,398.25z"/>
	<path class="st4" d="M565.14,378.38c8.92-15.58,2.74-22.22-4.95-25.72c-6.93-3.15-12.7-0.66-21.09,14.17
		c-6.96,12.31-21.53,31.79-29.02,43.82c-7.73,12.46-23.49,33.8-31.76,45.86c-7.12,10.38-8.16,17.28-3.91,22.11
		c4.8,5.46,13.32,6.26,21.46,0.28c7.38-5.42,12.84-14.12,18.43-22.57C529.57,433.27,551.4,402.4,565.14,378.38z"/>
	<g>
		<path class="st1" d="M380.37,333.5c-4.01,0-8.72-0.7-9.59-4.53l-0.17-1.74c0-7.32,5.23-25.8,8.54-36.96h-3.83
			c-4.36,0-7.85-0.17-10.11-1.05c-4.01-1.39-7.32-4.88-7.32-9.24c0-0.87,0-1.74,0.35-2.62c0.17-0.7,0.87-1.22,1.57-1.22
			c0.52,0,1.05,0.35,1.39,0.7c1.39,1.57,4.88,2.09,9.41,2.09c3.49,0,7.85-0.35,12.38-0.87c4.88-14.99,9.59-28.77,11.68-33.3
			c0.35-1.05,1.74-1.57,2.62-1.74c-9.24,1.57-21.1,4.53-31.03,4.53c-2.79,0-5.4-0.17-7.85-0.7c-5.58-1.22-6.8-4.53-6.8-8.89
			c0-2.44,0.52-5.23,0.7-8.19c0-1.05,0.87-1.57,1.57-1.57c0.52,0,1.05,0.17,1.39,0.7c1.74,2.27,6.62,3.14,13.25,3.14
			c18.83,0,51.95-6.97,63.46-6.97c11.68,0,18.31,6.45,18.31,14.12c0,3.49-1.39,7.15-4.53,10.63c-0.35,0.35-0.87,0.52-1.39,0.52
			c-0.87,0-1.74-0.7-1.74-1.57l0.17-0.7c0.52-1.57,0.87-2.79,0.87-3.84c0-2.44-1.39-3.83-3.49-4.71c-1.92-0.7-4.36-0.87-7.5-0.87
			c-9.59,0-23.54,2.62-33.3,4.01c4.01,0,9.94,2.79,9.94,5.41l-0.17,0.7c-1.22,3.31-5.06,13.95-9.41,26.67l9.59-1.39
			c5.58,0,5.75,5.4,6.45,10.11l0.17,0.7c0,0.7-0.52,1.39-1.39,1.57c-2.79,0.7-10.81,1.92-19.35,2.61
			c-4.01,12.03-11.33,35.57-11.33,42.71c0,0.87-0.7,1.74-1.74,1.74H380.37z"/>
		<path class="st1" d="M421.86,304.91c0-17.96,12.03-41.49,28.24-41.49c1.39,0,2.79,0.18,4.36,0.52
			c8.37,2.09,10.81,9.94,10.81,18.13c0,5.06-1.05,10.46-2.27,14.47c5.75,0,12.03-2.96,14.99-8.72c0.35-0.7,0.87-0.87,1.39-0.87
			c0.35,0,0.7,0.17,1.05,0.35c0.52,0.17,0.7,0.7,0.7,1.22c0,0.35,0,0.7-0.17,1.05c-3.49,6.62-10.81,10.46-17.78,10.46h-1.39
			c-3.84,10.98-12.38,24.93-24.41,24.93C426.4,324.96,421.86,316.06,421.86,304.91z M454.11,297.24c-2.79-2.09-3.83-5.23-3.83-8.2
			c0-5.06,3.14-10.11,6.45-10.98c-0.52-2.27-1.57-4.01-3.84-4.01h-0.87c-8.37,1.39-17.61,25.1-17.61,37.66
			c0,4.36,1.05,7.5,3.66,7.85h0.52C445.4,319.55,452.2,302.64,454.11,297.24z"/>
		<path class="st1" d="M474.51,304.91c0-17.96,12.03-41.49,28.24-41.49c1.39,0,2.79,0.18,4.36,0.52
			c8.37,2.09,10.81,9.94,10.81,18.13c0,5.06-1.05,10.46-2.27,14.47c5.75,0,12.03-2.96,14.99-8.72c0.35-0.7,0.87-0.87,1.39-0.87
			c0.35,0,0.7,0.17,1.05,0.35c0.52,0.17,0.7,0.7,0.7,1.22c0,0.35,0,0.7-0.17,1.05c-3.49,6.62-10.81,10.46-17.78,10.46h-1.39
			c-3.84,10.98-12.38,24.93-24.41,24.93C479.04,324.96,474.51,316.06,474.51,304.91z M506.76,297.24c-2.79-2.09-3.83-5.23-3.83-8.2
			c0-5.06,3.14-10.11,6.45-10.98c-0.52-2.27-1.57-4.01-3.84-4.01h-0.87c-8.37,1.39-17.61,25.1-17.61,37.66
			c0,4.36,1.05,7.5,3.66,7.85h0.52C498.05,319.55,504.85,302.64,506.76,297.24z"/>
		<path class="st1" d="M557.15,320.95c-0.87-1.92-1.22-4.36-1.22-7.32c0-2.09,0.17-4.36,0.52-6.8c-4.36,7.5-10.46,15.17-17.78,15.17
			h-0.17c-8.37-0.17-11.86-7.15-11.86-16.21c0-17.26,12.55-42.01,29.81-42.01h0.17c4.18,0.17,7.85,1.39,9.94,4.36
			c4.18-12.2,8.37-22.66,10.11-26.85c0.7-1.57,2.62-2.09,4.88-2.09c4.53,0,10.63,2.44,10.63,5.06v0.35
			c-1.92,5.75-21.1,54.04-23.01,72l-0.17,2.44c0,1.57,0.17,2.44,0.35,2.79c0.35,0.7,0.52,1.05,0.52,1.74c0,0.87-0.35,1.74-0.87,1.74
			C564.12,325.3,559.06,325.13,557.15,320.95z M559.93,289.57c0.7-1.74,2.27-6.8,2.27-10.63c0-2.96-0.87-5.4-3.66-5.4h-0.17
			c-8.02,0-17.96,23.53-17.96,33.82c0,2.96,0.7,4.71,2.62,4.71C548.43,311.88,558.19,294.1,559.93,289.57z"/>
	</g>
</g>
</svg>
